# AST/ASF file generated using VICON BodyLanguage
# -----------------------------------------------
:version 1.10
:name VICON
:units
  mass 1.0
  length 0.45
  angle deg
:documentation
   .ast/.asf automatically generated from VICON data using
   VICON BodyBuilder and BodyLanguage model FoxedUp or BRILLIANT.MOD
:root
   order TX TY TZ RX RY RZ
   axis XYZ
   position 0 0 0  
   orientation 0 0 0 
:bonedata
  begin
     id 1 
     name lhipjoint
     direction 0.603808 -0.713975 0.35448 
     length 2.2025 
     axis 0 0 0  XYZ
  end
  begin
     id 2 
     name lfemur
     direction 0.34202 -0.939693 0  
     length 6.55877  
     axis 0 0 20  XYZ
    dof rx ry rz
    limits (-160.0 20.0)
           (-70.0 70.0)
           (-60.0 70.0)
  end
  begin
     id 3 
     name ltibia
     direction 0.34202 -0.939693 0   
     length 6.80302   
     axis 0 0 20   XYZ
    dof rx
    limits (-10.0 170.0)
  end
  begin
     id 4 
     name lfoot
     direction 0.091848 -0.25235 0.963267   
     length 2.03446   
     axis -90 7.62852e-016 20   XYZ
    dof rx rz
    limits (-45.0 90.0)
           (-70.0 20.0)
  end
  begin
     id 5 
     name ltoes
     direction 1.53608e-011 -4.21925e-011 1   
     length 1.02033   
     axis -90 7.62852e-016 20   XYZ
    dof rx
    limits (-90.0 20.0)
  end
  begin
     id 6 
     name rhipjoint
     direction -0.587285 -0.724947 0.359928   
     length 2.16916  
     axis 0 0 0  XYZ 
  end
  begin
     id 7 
     name rfemur
     direction -0.34202 -0.939693 0   
     length 6.43173   
     axis 0 0 -20   XYZ
    dof rx ry rz
    limits (-160.0 20.0)
           (-70.0 70.0)
           (-70.0 60.0)
  end
  begin
     id 8 
     name rtibia
     direction -0.34202 -0.939693 0   
     length 6.70662   
     axis 0 0 -20   XYZ
    dof rx
    limits (-10.0 170.0)
 end
 begin
     id 9 
     name rfoot
     direction -0.11854 -0.325686 0.938018   
     length 2.0773  
     axis -90 -7.62852e-016 -20   XYZ
    dof rx rz
    limits (-45.0 90.0)
           (-20.0 70.0)
  end
  begin
     id 10 
     name rtoes
     direction -1.53547e-011 -4.21838e-011 1   
     length 1.03267   
     axis -90 -7.62852e-016 -20   XYZ
    dof rx
    limits (-90.0 20.0)
  end
  begin
     id 11 
     name lowerback
     direction -0.0286554 0.999539 0.0100613   
     length 2.08751   
     axis 0 0 0   XYZ
    dof rx ry rz
    limits (-20.0 45.0)
           (-30.0 30.0)
           (-30.0 30.0)
  end
  begin
     id 12 
     name upperback
     direction 0.0227093 0.999705 -0.00860929   
     length 2.08517   
     axis 0 0 0   XYZ
    dof rx ry rz
    limits (-20.0 45.0)
           (-30.0 30.0)
           (-30.0 30.0)
  end
  begin
     id 13 
     name thorax
     direction 0.0351627 0.999285 -0.013892   
     length 2.08412   
     axis 0 0 0   XYZ
    dof rx ry rz
    limits (-20.0 45.0)
           (-30.0 30.0)
           (-30.0 30.0)
  end
  begin
     id 14 
     name lowerneck
     direction -0.0696283 0.997344 0.0213922   
     length 1.44164   
     axis 0 0 0   XYZ
    dof rx ry rz
    limits (-20.0 45.0)
           (-30.0 30.0)
           (-30.0 30.0)
  end
  begin
     id 15 
     name upperneck
     direction 0.0531 0.990412 -0.127531   
     length 1.45022   
     axis 0 0 0   XYZ
    dof rx ry rz
    limits (-20.0 45.0)
           (-30.0 30.0)
           (-30.0 30.0)
  end
  begin
     id 16
     name head
     direction 0.0188154 0.998548 -0.0504727  
     length 1.45845  
     axis 0 0 0   XYZ
    dof rx ry rz
    limits (-20.0 45.0)
           (-30.0 30.0)
           (-30.0 30.0)
  end
  begin
     id 17 
     name lclavicle
     direction 0.961559 0.260051 0.088188  
     length 2.86057  
     axis 0 0 0   XYZ
    dof ry rz
    limits (-20.0 10.0)
           (0.0 20.0)
  end
  begin
     id 18 
     name lhumerus
     direction 1 -4.48959e-011 2.88185e-027   
     length 4.36901   
     axis 180 -30 -90   XYZ
    dof rx ry rz
    limits (-60.0 90.0)
           (-90.0 90.0)
           (-90.0 90.0)
  end
  begin
     id 19
     name lradius
     direction 1 -4.48965e-011 -3.92618e-028   
     length 3.21737   
     axis 180 -30 -90   XYZ
    dof rx
    limits (-10.0 170.0)
  end
  begin
     id 20
     name lwrist
     direction 1 -4.49037e-011 2.57246e-027   
     length 1.60869   
     axis -1.61769e-015 90 90   XYZ
    dof ry
    limits (-180.0 0.0)
 end
  begin
     id 21 
     name lhand
     direction 1 -4.48807e-011 5.12958e-027   
     length 0.564313   
     axis -3.27988e-015 90 90   XYZ
    dof rx rz
    limits (-90.0 90.0)
           (-45.0 45.0)
  end
  begin
     id 22 
     name lfingers
     direction 1 -4.48879e-011 1.02687e-026   
     length 0.454963   
     axis -6.5598e-015 90 90   XYZ
    dof rx
    limits (0.0 90.0)
  end
  begin
     id 23
     name lthumb
     direction 0.707107 -6.3475e-011 0.707107   
     length 0.653239   
     axis -90 45 2.19363e-014   XYZ
    dof rx rz
    limits (-45.0 45.0)
           (-45.0 45.0)
  end
  begin
     id 24 
     name rclavicle
     direction -0.954677 0.253915 0.155304   
     length 3.11497  
     axis 0 0 0   XYZ 
    dof ry rz
    limits (-10.0 20.0)
           (-20.0 0.0)
  end
  begin
     id 25 
     name rhumerus
     direction -1 -4.48958e-011 -8.20169e-028  
     length 4.34118   
     axis 180 30 90   XYZ
    dof rx ry rz
    limits (-90.0 60.0)
           (-90.0 90.0)
           (-90.0 90.0)
  end
  begin
     id 26 
     name rradius
     direction -1 -4.48978e-011 1.5676e-027   
     length 3.09531   
     axis 180 30 90   XYZ
    dof rx
    limits (-10.0 170.0)
  end
  begin
     id 27 
     name rwrist
     direction -1 -4.49001e-011 2.57123e-027   
     length 1.54765   
     axis -1.61769e-015 -90 -90   XYZ
    dof ry
    limits (-180.0 0.0)
  end
  begin
     id 28
     name rhand
     direction -1 -4.48847e-011 5.13225e-027   
     length 0.597446   
     axis -3.27988e-015 -90 -90   XYZ
    dof rx rz
    limits (-90.0 90.0)
           (-45.0 45.0)
  end
  begin
     id 29
     name rfingers
     direction -1 -4.49094e-011 1.02974e-026   
     length 0.481677   
     axis -6.5598e-015 -90 -90   XYZ
    dof rx
    limits (0.0 90.0)
  end
  begin
     id 30
     name rthumb
     direction -0.707107 -6.34859e-011 0.707107   
     length 0.691594   
     axis -90 -45 -2.19363e-014   XYZ
    dof rx rz
    limits (-45.0 45.0)
           (-45.0 45.0)
  end
:hierarchy
  begin
    root lhipjoint rhipjoint lowerback
    lhipjoint lfemur
    lfemur ltibia
    ltibia lfoot
    lfoot ltoes
    rhipjoint rfemur
    rfemur rtibia
    rtibia rfoot
    rfoot rtoes
    lowerback upperback
    upperback thorax
    thorax lowerneck lclavicle rclavicle
    lowerneck upperneck
    upperneck head
    lclavicle lhumerus
    lhumerus lradius
    lradius lwrist
    lwrist lhand lthumb
    lhand lfingers
    rclavicle rhumerus
    rhumerus rradius
    rradius rwrist
    rwrist rhand rthumb
    rhand rfingers
  end

#!OML:ASF I:\Acrobat_Osman\acrobat\cartwheel_test 2\Patient 1\Session 1\acrobat.ASF
:FULLY-SPECIFIED
:DEGREES
189
root 7.05861 12.1346 11.8948 14.1294 -9.1031 3.15076
lowerback 12.7131 -4.04094 -6.08492
upperback 5.59083 -6.00104 0.886538
thorax -0.478341 -3.12023 5.07091
lowerneck -8.0183 4.87049 -1.01655
upperneck 6.196 6.62417 0.0240975
head 3.37628 3.2562 0.540169
rclavicle -6.57977e-014 2.26615e-014
rhumerus -58.3452 -12.0036 -30.1098
rradius 25.0601
rwrist -3.84654
rhand -15.0359 15.0619
rfingers 7.12502
rthumb 11.1301 -14.6229
lclavicle -6.57977e-014 2.26615e-014
lhumerus -10.8688 -20.9756 86.7932
lradius 38.4672
lwrist 15.2488
lhand -21.1244 53.2717
lfingers 7.12502
lthumb 5.25424 83.1866
rfemur -82.2717 -10.9673 22.6776
rtibia 90.1906
rfoot -19.4141 4.47725
rtoes 10.5521
lfemur -72.7495 37.8638 -14.4402
ltibia 85.1602
lfoot -14.7433 -15.354
ltoes -18.2257
190
root 7.16407 11.681 11.8886 14.2137 -9.7803 3.07903
lowerback 12.9373 -4.22576 -5.82162
upperback 5.59687 -6.22673 0.908105
thorax -0.590945 -3.22461 4.99168
lowerneck -7.98086 5.17978 -1.15117
upperneck 5.54113 7.07124 -0.298383
head 3.14676 3.46944 0.466155
rclavicle -9.30312e-014 1.82882e-014
rhumerus -58.5046 -13.4822 -29.5205
rradius 25.0261
rwrist -4.38403
rhand -16.024 15.1714
rfingers 7.12502
rthumb 10.177 -14.5625
lclavicle -9.30312e-014 1.82882e-014
lhumerus -11.6302 -17.6941 87.9419
lradius 35.7246
lwrist 15.1
lhand -21.2088 54.0547
lfingers 7.12502
lthumb 5.17272 83.9716
rfemur -85.874 -10.9074 22.6661
rtibia 94.8382
rfoot -21.317 5.09065
rtoes 11.838
lfemur -76.7766 39.7879 -16.3675
ltibia 90.1445
lfoot -18.4769 -12.1677
ltoes -17.3183
191
root 7.27204 11.1474 11.9026 14.1424 -10.515 2.65311
lowerback 13.3644 -4.36468 -5.46178
upperback 5.63301 -6.38561 1.09481
thorax -0.781309 -3.29551 5.04402
lowerneck -7.91228 5.50788 -1.1908
upperneck 4.80883 7.53045 -0.668335
head 2.8939 3.69235 0.358179
rclavicle 1.53064e-014 2.14687e-014
rhumerus -58.3967 -15.0582 -28.8767
rradius 24.5182
rwrist -4.7855
rhand -16.908 15.6649
rfingers 7.12502
rthumb 9.32411 -14.1089
lclavicle 1.53064e-014 2.14687e-014
lhumerus -12.2695 -14.2341 88.6735
lradius 33.4122
lwrist 15.5093
lhand -21.7638 54.3005
lfingers 7.12502
lthumb 4.6368 84.2298
rfemur -89.8686 -10.6167 22.8959
rtibia 99.881
rfoot -22.5975 5.52217
rtoes 12.3409
lfemur -81.6115 42.1651 -18.1461
ltibia 95.8005
lfoot -22.5489 -10.8404
ltoes -18.7908
192
root 7.37739 10.603 11.9108 13.6843 -11.2921 1.93404
lowerback 14.1842 -4.47004 -5.07167
upperback 5.81981 -6.50526 1.38024
thorax -1.01774 -3.35114 5.21056
lowerneck -7.85062 5.88665 -1.09909
upperneck 4.04254 8.04113 -1.08368
head 2.64297 3.94422 0.215672
rclavicle 2.36554e-014 -9.93923e-015
rhumerus -58.083 -17.0857 -28.01
rradius 23.7903
rwrist -5.03732
rhand -17.0512 15.5158
rfingers 7.12502
rthumb 9.18591 -14.2641
lclavicle 2.36554e-014 -9.93923e-015
lhumerus -12.7105 -10.7078 88.849
lradius 31.7376
lwrist 16.4557
lhand -20.6202 55.5409
lfingers 7.12502
lthumb 5.741 85.4431
rfemur -93.6355 -10.1645 23.419
rtibia 104.888
rfoot -23.4356 5.47667
rtoes 11.0882
lfemur -85.8187 44.6607 -18.3852
ltibia 101.524
lfoot -24.675 -10.6728
ltoes -17.4115
193
root 7.49006 10.0574 11.9114 12.7012 -12.0577 1.32316
lowerback 15.482 -4.58491 -4.75889
upperback 6.12477 -6.65814 1.61387
thorax -1.37159 -3.42295 5.41536
lowerneck -7.68891 6.24253 -1.11462
upperneck 3.21968 8.5224 -1.46676
head 2.35361 4.18444 0.0943454
rclavicle -1.74931e-014 9.54166e-015
rhumerus -58.1632 -18.8524 -27.6839
rradius 24.088
rwrist -6.10968
rhand -17.0919 14.8612
rfingers 7.12502
rthumb 9.14669 -14.9204
lclavicle -1.74931e-014 9.54166e-015
lhumerus -12.8028 -7.4858 88.5884
lradius 30.477
lwrist 17.9547
lhand -23.1494 55.4448
lfingers 7.12502
lthumb 3.29879 85.399
rfemur -96.8719 -9.95549 23.7796
rtibia 109.736
rfoot -24.2292 5.45914
rtoes 9.6256
lfemur -89.312 47.3372 -17.7519
ltibia 107.236
lfoot -25.8585 -12.0659
ltoes -16.4691
194
root 7.60276 9.5193 11.911 11.2343 -12.9084 1.50024
lowerback 17.0501 -4.65814 -5.13393
upperback 6.40872 -6.87127 1.63879
thorax -1.81467 -3.5276 5.82683
lowerneck -7.21313 6.52676 -1.26418
upperneck 2.21982 8.90295 -1.81364
head 1.94616 4.38167 -0.0155811
rclavicle 8.74653e-014 -3.10104e-014
rhumerus -58.5724 -19.769 -28.3512
rradius 25.4344
rwrist -8.798
rhand -17.0054 15.3922
rfingers 7.12502
rthumb 9.23009 -14.3858
lclavicle 8.74653e-014 -3.10104e-014
lhumerus -12.371 -4.80086 88.0543
lradius 28.7947
lwrist 18.97
lhand -21.2715 57.5476
lfingers 7.12502
lthumb 5.11216 87.4659
rfemur -99.8035 -10.1543 23.373
rtibia 114.368
rfoot -25.02 5.80503
rtoes 9.74941
lfemur -92.4388 50.3151 -18.1367
ltibia 112.621
lfoot -27.66 -13.2213
ltoes -17.8202
195
root 7.71669 9.00083 11.9045 9.13215 -13.7921 2.4433
lowerback 18.9665 -4.6563 -6.09231
upperback 6.78296 -7.12555 1.43081
thorax -2.27548 -3.65665 6.3617
lowerneck -6.62506 6.73735 -1.25974
upperneck 1.00578 9.16016 -2.26265
head 1.47049 4.52405 -0.196262
rclavicle 3.3197e-014 -1.07344e-014
rhumerus -58.907 -20.7576 -29.1332
rradius 26.5825
rwrist -11.472
rhand -16.3566 16.9824
rfingers 7.12502
rthumb 9.85613 -12.7669
lclavicle 3.3197e-014 -1.07344e-014
lhumerus -10.8424 -1.91375 86.9271
lradius 27.0394
lwrist 20.5361
lhand -21.3149 59.3329
lfingers 7.12502
lthumb 5.07033 89.2522
rfemur -102.424 -10.854 22.3525
rtibia 118.806
rfoot -25.4465 6.32853
rtoes 9.76139
lfemur -95.0186 53.6313 -19.452
ltibia 117.683
lfoot -29.9076 -14.1664
ltoes -18.202
196
root 7.82611 8.484 11.9033 6.26042 -14.7289 3.26291
lowerback 21.366 -4.54121 -6.99419
upperback 7.35419 -7.28756 1.26495
thorax -2.75774 -3.74435 6.94193
lowerneck -6.17484 6.93161 -1.13818
upperneck -0.0506193 9.38837 -2.84998
head 1.09297 4.64924 -0.428092
rclavicle -2.60408e-014 7.95139e-016
rhumerus -59.1006 -21.8754 -29.6405
rradius 27.2366
rwrist -13.5605
rhand -16.7271 16.7015
rfingers 7.12502
rthumb 9.49865 -13.0644
lclavicle -2.60408e-014 7.95139e-016
lhumerus -8.81313 0.23391 85.4477
lradius 25.443
lwrist 23.1728
lhand -24.2646 60.0606
lfingers 7.12502
lthumb 2.22181 -90.0288
rfemur -104.388 -11.5908 21.5337
rtibia 123.144
rfoot -25.5341 6.64295
rtoes 7.87868
lfemur -97.0914 58.2956 -20.4612
ltibia 122.564
lfoot -32.4057 -15.4199
ltoes -18.4365
197
root 7.95268 7.94255 11.9074 3.68134 -15.9784 2.96216
lowerback 23.4579 -4.44395 -6.68803
upperback 7.86605 -7.21522 1.45319
thorax -3.27208 -3.70491 7.1598
lowerneck -5.75678 7.13 -1.07737
upperneck -0.930524 9.62452 -3.54575
head 0.787921 4.77686 -0.676739
rclavicle 2.16675e-014 -3.97569e-015
rhumerus -59.2765 -22.51 -30.1436
rradius 27.9066
rwrist -15.7257
rhand -18.2651 15.156
rfingers 7.12502
rthumb 8.01452 -14.6721
lclavicle 2.16675e-014 -3.97569e-015
lhumerus -6.7157 1.64539 83.8682
lradius 24.5854
lwrist 28.8173
lhand -26.8506 61.7762
lfingers 7.12502
lthumb -0.275822 -91.7558
rfemur -106.68 -11.6415 21.8281
rtibia 127.22
rfoot -25.067 6.73703
rtoes 5.35418
lfemur -102.551 65.316 -22.8999
ltibia 127.587
lfoot -34.7089 -17.8285
ltoes -17.9688
198
root 8.08378 7.41195 11.914 0.887492 -17.1187 2.56732
lowerback 25.4073 -4.38619 -5.94447
upperback 8.52353 -7.06526 1.68664
thorax -3.59371 -3.6399 7.13341
lowerneck -5.83776 7.20167 -1.05876
upperneck -1.60162 9.7014 -4.00238
head 0.618783 4.82166 -0.827257
rclavicle 2.54444e-014 -1.94809e-014
rhumerus -59.7832 -23.3417 -30.3152
rradius 28.6209
rwrist -17.4591
rhand -19.3323 14.9243
rfingers 7.12502
rthumb 6.98434 -14.9404
lclavicle 2.54444e-014 -1.94809e-014
lhumerus -3.83432 3.05046 81.9148
lradius 23.7037
lwrist 33.3424
lhand -26.3175 62.2928
lfingers 7.12502
lthumb 0.239087 -92.2724
rfemur -108.76 -11.9856 22.2656
rtibia 131.032
rfoot -24.3421 7.13871
rtoes 4.3288
lfemur -113.581 73.6384 -30.5146
ltibia 132.359
lfoot -37.2526 -21.138
ltoes -16.8482
199
root 8.21436 6.89206 11.9323 -2.45782 -17.7749 3.0985
lowerback 26.9384 -4.55175 -5.83316
upperback 9.09039 -7.328 1.79306
thorax -3.65534 -3.79585 7.38178
lowerneck -5.26158 7.28457 -1.28522
upperneck -2.30697 9.78453 -4.21082
head 0.305894 4.88316 -0.891516
rclavicle -3.15571e-015 5.48646e-014
rhumerus -60.4121 -24.1069 -29.5314
rradius 28.9614
rwrist -18.717
rhand -20.7594 14.7904
rfingers 7.12502
rthumb 5.60667 -15.1154
lclavicle -3.15571e-015 5.48646e-014
lhumerus -0.709535 5.66972 79.5741
lradius 24.6625
lwrist 37.3253
lhand -27.1898 64.0657
lfingers 7.12502
lthumb -0.603366 -94.0446
rfemur -110.956 -13.7752 22.1977
rtibia 134.798
rfoot -23.6062 8.16382
rtoes 3.25285
lfemur -142.049 81.0562 -56.3674
ltibia 136.82
lfoot -40.4015 -24.1159
ltoes -16.0647
200
root 8.33763 6.41858 11.9798 -7.12972 -18.5972 4.29002
lowerback 28.8595 -4.51753 -6.31255
upperback 9.96983 -7.52647 1.76688
thorax -3.47055 -3.9605 7.82358
lowerneck -5.48503 7.33482 -1.32172
upperneck -2.54747 9.84793 -4.42226
head 0.278855 4.9149 -0.945065
rclavicle -5.71506e-014 3.3197e-014
rhumerus -61.0254 -25.3269 -27.7496
rradius 28.8348
rwrist -19.4707
rhand -23.2527 13.7123
rfingers 7.12502
rthumb 3.1991 -16.2435
lclavicle -5.71506e-014 3.3197e-014
lhumerus 2.9303 8.50007 77.2632
lradius 24.9158
lwrist 42.3999
lhand -25.5481 63.8751
lfingers 7.12502
lthumb 0.982204 -93.8526
rfemur -111.665 -16.0927 21.5094
rtibia 138.251
rfoot -23.4905 9.54832
rtoes 1.25374
lfemur -224.153 82.6219 -136.554
ltibia 140.692
lfoot -44.9938 -26.6793
ltoes -15.8494
201
root 8.45495 5.9658 12.0386 -11.8922 -18.9179 6.0139
lowerback 29.8748 -4.50103 -6.57652
upperback 10.6976 -7.66293 1.66189
thorax -3.06418 -4.09826 7.94823
lowerneck -5.0149 7.036 -1.94149
upperneck -3.3262 9.43499 -4.03286
head -0.0932678 4.7362 -0.777107
rclavicle 8.3092e-014 -4.81059e-014
rhumerus -62.7351 -26.6219 -24.4658
rradius 28.5745
rwrist -19.1997
rhand -25.495 12.026
rfingers 7.12502
rthumb 1.03348 -17.9513
lclavicle 8.3092e-014 -4.81059e-014
lhumerus 6.47225 9.80775 74.4928
lradius 27.6852
lwrist 51.303
lhand -27.5802 64.4111
lfingers 7.12502
lthumb -0.980509 -94.3886
rfemur -112.95 -19.5058 20.6113
rtibia 141.468
rfoot -23.115 11.7297
rtoes 0.39526
lfemur -259.834 75.3122 -170.105
ltibia 144.149
lfoot -49.3704 -28.173
ltoes -16.4195
202
root 8.56701 5.56815 12.1322 -16.0709 -18.9091 6.82238
lowerback 29.7327 -5.08967 -5.69066
upperback 11.1804 -8.1821 1.85239
thorax -2.46236 -4.40462 7.74394
lowerneck -4.66198 6.83956 -1.90959
upperneck -3.36122 9.15317 -4.25135
head -0.150919 4.59703 -0.866182
rclavicle 3.18055e-015 4.21423e-014
rhumerus -64.4209 -27.3956 -20.0514
rradius 27.9707
rwrist -17.4937
rhand -27.5534 9.6897
rfingers 7.12502
rthumb -0.954543 -20.2879
lclavicle 3.18055e-015 4.21423e-014
lhumerus 10.1279 12.2981 71.636
lradius 30.2437
lwrist 58.0532
lhand -30.6573 63.1039
lfingers 7.12502
lthumb -3.9522 -93.047
rfemur -113.885 -23.5043 20.2465
rtibia 144.249
rfoot -23.4458 14.1789
rtoes -0.986837
lfemur -273.045 67.956 -179.601
ltibia 147.238
lfoot -53.4278 -29.0811
ltoes -17.8953
203
root 8.61269 5.24102 12.2012 -21.9075 -20.3731 9.65729
lowerback 30.0226 -4.10525 -7.37438
upperback 11.6541 -7.46179 1.94416
thorax -1.90942 -4.18412 8.59464
lowerneck -4.20478 6.42823 -2.28794
upperneck -3.79415 8.58457 -4.00005
head -0.390526 4.3287 -0.766631
rclavicle -8.42847e-014 -6.36111e-015
rhumerus -66.8068 -28.0513 -14.0674
rradius 27.2263
rwrist -15.6908
rhand -29.6428 7.56817
rfingers 7.12502
rthumb -2.97252 -22.3909
lclavicle -8.42847e-014 -6.36111e-015
lhumerus 15.5789 18.1626 69.7577
lradius 28.7739
lwrist 45.9687
lhand -7.39531 64.8401
lfingers 7.12502
lthumb 18.4906 -93.9813
rfemur -112.659 -23.0827 16.7736
rtibia 146.426
rfoot -23.4024 15.3408
rtoes -2.67126
lfemur -286.519 60.0625 -190.762
ltibia 149.085
lfoot -57.4236 -30.0122
ltoes -19.1781
